<svg width="17" height="17" viewBox="0 0 17 17" fill="none" xmlns="http://www.w3.org/2000/svg">
<path id="Vector" d="M16.3034 7.31456L9.72202 0.787091C9.50624 0.553325 9.16458 0.400478 8.69705 0.32855C8.31943 0.32855 7.98676 0.481397 7.69905 0.787091L1.17157 7.31456C0.883862 7.58429 0.740005 7.92595 0.740005 8.33954C0.740005 8.75313 0.883862 9.10378 1.17157 9.39149C1.29745 9.51736 1.4458 9.62525 1.61663 9.71516C1.78746 9.80507 1.95379 9.85003 2.11563 9.85003H2.43931V14.6512C2.43931 15.1367 2.60564 15.5458 2.93831 15.8785C3.27097 16.2112 3.67107 16.3775 4.13861 16.3775H6.72802C6.85389 16.3775 6.96178 16.3325 7.05169 16.2426C7.1416 16.1527 7.18656 16.0448 7.18656 15.919V12.1158C7.18656 11.9 7.26298 11.7202 7.41583 11.5763C7.56868 11.4324 7.744 11.3605 7.9418 11.3605H9.58716C9.78496 11.3605 9.96029 11.4324 10.1131 11.5763C10.266 11.7202 10.3424 11.9 10.3424 12.1158V15.919C10.3424 16.0448 10.3874 16.1527 10.4773 16.2426C10.5672 16.3325 10.6751 16.3775 10.8009 16.3775H13.3904C13.8579 16.3775 14.258 16.2112 14.5907 15.8785C14.9233 15.5458 15.0897 15.1367 15.0897 14.6512V9.85003H15.4133C15.5752 9.85003 15.7415 9.80507 15.9123 9.71516C16.0832 9.62525 16.2315 9.51736 16.3574 9.39149C16.6271 9.10378 16.7575 8.75313 16.7485 8.33954C16.7395 7.92595 16.5912 7.58429 16.3034 7.31456ZM15.2245 8.879H14.5232C14.3973 8.879 14.294 8.92396 14.213 9.01387C14.1321 9.10378 14.0917 9.21167 14.0917 9.33754V14.6512C14.0917 14.849 14.0197 15.0244 13.8759 15.1772C13.732 15.33 13.5522 15.4065 13.3364 15.4065H11.2325V12.1158C11.2325 11.6482 11.0662 11.2481 10.7335 10.9155C10.4008 10.5828 10.0007 10.4165 9.53321 10.4165H7.9418C7.47427 10.4165 7.07417 10.5828 6.7415 10.9155C6.40884 11.2481 6.2425 11.6482 6.2425 12.1158V15.4065H4.13861C3.92282 15.4065 3.743 15.33 3.59915 15.1772C3.45529 15.0244 3.38336 14.849 3.38336 14.6512V9.33754C3.38336 9.21167 3.33841 9.10378 3.2485 9.01387C3.15859 8.92396 3.05069 8.879 2.92482 8.879H2.22352C2.07967 8.879 1.96278 8.82505 1.87287 8.71716C1.78296 8.60927 1.73801 8.4744 1.73801 8.31257C1.73801 8.22266 1.77397 8.09678 1.8459 7.93494L8.45429 1.35353C8.52622 1.26361 8.62512 1.21866 8.75099 1.21866C8.82292 1.21866 8.90384 1.24563 8.99375 1.29958L9.07467 1.35353L15.6831 7.93494C15.755 8.09678 15.791 8.22266 15.791 8.31257C15.755 8.49239 15.6921 8.63175 15.6021 8.73065C15.5122 8.82955 15.3864 8.879 15.2245 8.879Z" fill="white"/>
</svg>
