<svg width="16" height="15" viewBox="0 0 16 15" fill="none" xmlns="http://www.w3.org/2000/svg">
<path id="Vector" d="M14.6351 6.93495C14.5093 6.93495 14.4059 6.9754 14.3249 7.05632C14.244 7.13724 14.2036 7.24963 14.2036 7.39349V7.36651C14.2036 8.55333 13.9114 9.65023 13.3269 10.6572C12.7425 11.6642 11.9468 12.4599 10.9398 13.0443C9.93283 13.6288 8.84043 13.921 7.6626 13.921C6.48478 13.921 5.39237 13.6288 4.38538 13.0443C3.37839 12.4599 2.58268 11.6642 1.99827 10.6572C1.41385 9.65023 1.12165 8.55782 1.12165 7.38C1.12165 6.20218 1.41385 5.10977 1.99827 4.10278C2.58268 3.09578 3.37839 2.30008 4.38538 1.71566C5.39237 1.13125 6.48029 0.839041 7.64912 0.839041C8.81795 0.839041 9.86091 1.11776 10.778 1.6752L10.1846 2.24164C10.0947 2.33155 10.0497 2.43495 10.0497 2.55183C10.0497 2.66871 10.0947 2.77211 10.1846 2.86202C10.2745 2.95193 10.3824 2.99688 10.5083 2.99688H12.6122C12.738 2.99688 12.8414 2.95642 12.9223 2.8755C13.0033 2.79459 13.0437 2.69119 13.0437 2.56531V0.461418C13.0437 0.335545 13.0033 0.232147 12.9223 0.151229C12.8414 0.0703096 12.738 0.02985 12.6122 0.02985C12.4863 0.02985 12.3784 0.0748053 12.2885 0.164715L11.3984 1.05482C10.2655 0.353526 9.02474 0.00287724 7.67609 0.00287724C6.39937 0.00287724 5.18109 0.322058 4.02125 0.96042C2.86141 1.59878 1.93983 2.49339 1.25651 3.64424C0.699068 4.59728 0.370896 5.62226 0.271995 6.71916C0.173094 7.81606 0.303464 8.877 0.663104 9.90198C1.02274 10.927 1.59817 11.844 2.38938 12.6532C3.36041 13.6063 4.47529 14.2491 5.73403 14.5818C6.99277 14.9145 8.25601 14.9145 9.52374 14.5818C10.7915 14.2491 11.9019 13.6063 12.8549 12.6532C13.5562 11.9519 14.0912 11.1472 14.4598 10.2391C14.8284 9.33105 15.0128 8.40048 15.0128 7.44743C15.0487 7.28559 15.0262 7.15972 14.9453 7.06981C14.8644 6.9799 14.761 6.93495 14.6351 6.93495ZM10.4273 6.96192H8.08069V4.61526C8.08069 4.34553 7.95481 4.17471 7.70306 4.10278C7.43333 4.10278 7.26251 4.22865 7.19058 4.4804V7.42046C7.19058 7.54633 7.23553 7.64973 7.32544 7.73065C7.41535 7.81157 7.52324 7.85203 7.64912 7.85203H10.4273C10.5532 7.85203 10.6476 7.80258 10.7106 7.70368C10.7735 7.60477 10.805 7.4834 10.805 7.33954C10.805 7.24963 10.769 7.16422 10.6971 7.0833C10.6251 7.00238 10.5352 6.96192 10.4273 6.96192Z" fill="#003978"/>
</svg>
