<svg width="15" height="15" viewBox="0 0 15 15" fill="none" xmlns="http://www.w3.org/2000/svg">
<path id="Vector" d="M13.6061 0.272641H3.8419C3.46427 0.272641 3.14959 0.40301 2.89784 0.66375C2.64609 0.924489 2.52022 1.24367 2.52022 1.62129V2.5114H2.08865C1.71103 2.5114 1.39185 2.63728 1.13111 2.88902C0.870367 3.14077 0.739998 3.45546 0.739998 3.83308V12.7072C0.739998 13.1927 0.910827 13.6108 1.25249 13.9615C1.59414 14.3121 2.01672 14.4874 2.52022 14.4874H13.1206C13.5882 14.4874 13.9972 14.3076 14.3479 13.948C14.6985 13.5883 14.8739 13.1747 14.8739 12.7072V1.62129C14.9098 1.26165 14.7974 0.946967 14.5367 0.677237C14.276 0.407506 13.9658 0.272641 13.6061 0.272641ZM14.0647 12.7072C14.0647 12.959 13.9793 13.1702 13.8084 13.3411C13.6376 13.5119 13.4263 13.5973 13.1746 13.5973H2.52022C2.26847 13.5973 2.05718 13.5119 1.88635 13.3411C1.71552 13.1702 1.63011 12.959 1.63011 12.7072V3.83308C1.63011 3.70721 1.67506 3.59931 1.76497 3.5094C1.85488 3.41949 1.96278 3.37454 2.08865 3.37454H2.52022V12.2487C2.52022 12.3745 2.56517 12.4824 2.65508 12.5723C2.74499 12.6623 2.85289 12.7072 2.97876 12.7072C3.10463 12.7072 3.20803 12.6623 3.28895 12.5723C3.36987 12.4824 3.41033 12.3745 3.41033 12.2487V1.62129C3.41033 1.49542 3.45079 1.38753 3.53171 1.29762C3.61263 1.20771 3.71602 1.16275 3.8419 1.16275H13.5522C13.6781 1.16275 13.7815 1.20771 13.8624 1.29762C13.9433 1.38753 13.9838 1.49542 13.9838 1.62129L14.0647 12.7072ZM9.37137 6.04487H12.9048C12.9768 6.04487 13.0307 6.02239 13.0667 5.97744C13.1026 5.93248 13.1206 5.88753 13.1206 5.84257C13.1206 5.79762 13.0981 5.75716 13.0532 5.72119C13.0082 5.68523 12.9588 5.66725 12.9048 5.66725H9.37137C9.31742 5.66725 9.27247 5.68972 9.2365 5.73468C9.20054 5.77963 9.18256 5.82009 9.18256 5.85606C9.18256 5.89202 9.20054 5.93248 9.2365 5.97744C9.27247 6.02239 9.31742 6.04487 9.37137 6.04487ZM9.37137 4.72319H12.9048C12.9768 4.72319 13.0307 4.69622 13.0667 4.64227C13.1026 4.58833 13.1206 4.52988 13.1206 4.46695C13.1206 4.40401 13.0981 4.35456 13.0532 4.31859C13.0082 4.28263 12.9588 4.26465 12.9048 4.26465H9.37137C9.31742 4.26465 9.27247 4.29162 9.2365 4.34557C9.20054 4.39951 9.18256 4.45796 9.18256 4.52089C9.18256 4.58383 9.20503 4.63328 9.24999 4.66924C9.29494 4.70521 9.3354 4.72319 9.37137 4.72319ZM9.37137 3.37454H12.9048C12.9768 3.37454 13.0307 3.35656 13.0667 3.32059C13.1026 3.28463 13.1206 3.23967 13.1206 3.18573C13.1206 3.13178 13.0981 3.08683 13.0532 3.05086C13.0082 3.0149 12.9588 2.99692 12.9048 2.99692H9.37137C9.31742 2.99692 9.27247 3.01939 9.2365 3.06435C9.20054 3.1093 9.18256 3.14976 9.18256 3.18573C9.18256 3.3116 9.24549 3.37454 9.37137 3.37454ZM8.04969 12.2487H4.48925C4.4353 12.2487 4.39035 12.2711 4.35438 12.3161C4.31842 12.3611 4.30044 12.4015 4.30044 12.4375C4.30044 12.4734 4.32292 12.5184 4.36787 12.5723C4.41283 12.6263 4.45328 12.6533 4.48925 12.6533H8.04969C8.10363 12.6533 8.14859 12.6308 8.18455 12.5858C8.22052 12.5409 8.2385 12.4959 8.2385 12.451C8.2385 12.406 8.22052 12.3611 8.18455 12.3161C8.14859 12.2711 8.10363 12.2487 8.04969 12.2487ZM8.04969 10.927H4.48925C4.41732 10.927 4.35888 10.945 4.31392 10.9809C4.26897 11.0169 4.24649 11.0663 4.24649 11.1293C4.24649 11.1922 4.25998 11.2507 4.28695 11.3046C4.31392 11.3586 4.36337 11.3855 4.4353 11.3855H7.96877C8.0407 11.3855 8.10363 11.3675 8.15758 11.3316C8.21153 11.2956 8.243 11.2462 8.25199 11.1832C8.26098 11.1203 8.25199 11.0619 8.22501 11.0079C8.19804 10.954 8.1396 10.927 8.04969 10.927ZM8.04969 9.60531H4.48925C4.4353 9.60531 4.39035 9.62779 4.35438 9.67274C4.31842 9.7177 4.30044 9.76265 4.30044 9.80761C4.30044 9.85256 4.32292 9.89302 4.36787 9.92899C4.41283 9.96495 4.45328 9.98293 4.48925 9.98293H8.04969C8.10363 9.98293 8.14859 9.96045 8.18455 9.9155C8.22052 9.87054 8.243 9.82559 8.25199 9.78063C8.26098 9.73568 8.24749 9.69522 8.21153 9.65926C8.17556 9.62329 8.12162 9.60531 8.04969 9.60531ZM12.9048 12.2487H9.37137C9.31742 12.2487 9.27247 12.2711 9.2365 12.3161C9.20054 12.3611 9.18256 12.4015 9.18256 12.4375C9.18256 12.4734 9.20503 12.5184 9.24999 12.5723C9.29494 12.6263 9.3354 12.6533 9.37137 12.6533H12.9048C12.9768 12.6533 13.0307 12.6308 13.0667 12.5858C13.1026 12.5409 13.1206 12.4959 13.1206 12.451C13.1206 12.406 13.1026 12.3611 13.0667 12.3161C13.0307 12.2711 12.9768 12.2487 12.9048 12.2487ZM12.9048 10.927H9.37137C9.29944 10.927 9.2365 10.945 9.18256 10.9809C9.12861 11.0169 9.10164 11.0663 9.10164 11.1293C9.10164 11.1922 9.11962 11.2507 9.15558 11.3046C9.19155 11.3586 9.24549 11.3855 9.31742 11.3855H12.8509C12.9048 11.3855 12.9498 11.3586 12.9858 11.3046C13.0217 11.2507 13.0397 11.1877 13.0397 11.1158C13.1116 10.9899 13.0667 10.927 12.9048 10.927ZM12.9048 9.60531H9.37137C9.31742 9.60531 9.27247 9.62779 9.2365 9.67274C9.20054 9.7177 9.18256 9.76265 9.18256 9.80761C9.18256 9.85256 9.20503 9.89302 9.24999 9.92899C9.29494 9.96495 9.3354 9.98293 9.37137 9.98293H12.9048C12.9768 9.98293 13.0307 9.96045 13.0667 9.9155C13.1026 9.87054 13.1251 9.82559 13.1341 9.78063C13.1431 9.73568 13.1251 9.69522 13.0802 9.65926C13.0352 9.62329 12.9768 9.60531 12.9048 9.60531ZM12.9048 6.93498H4.54319C4.47127 6.93498 4.41283 6.95296 4.36787 6.98892C4.32292 7.02489 4.30044 7.07434 4.30044 7.13728C4.30044 7.20021 4.31842 7.25866 4.35438 7.3126C4.39035 7.36655 4.4353 7.39352 4.48925 7.39352L12.9048 7.36655C12.9768 7.36655 13.0307 7.34407 13.0667 7.29911C13.1026 7.25416 13.1206 7.20471 13.1206 7.15076C13.1206 7.09682 13.1026 7.04737 13.0667 7.00241C13.0307 6.95746 12.9768 6.93498 12.9048 6.93498ZM12.9048 8.25666H4.54319C4.47127 8.25666 4.41283 8.27464 4.36787 8.3106C4.32292 8.34657 4.30044 8.39602 4.30044 8.45896C4.30044 8.52189 4.31842 8.58033 4.35438 8.63428C4.39035 8.68823 4.4353 8.7152 4.48925 8.7152H12.9048C12.9768 8.7152 13.0307 8.68823 13.0667 8.63428C13.1026 8.58033 13.1206 8.5174 13.1206 8.44547C13.1206 8.31959 13.0487 8.25666 12.9048 8.25666ZM4.73201 6.04487H7.8339C7.97776 6.04487 8.09015 6.00441 8.17107 5.92349C8.25199 5.84257 8.29245 5.73917 8.29245 5.6133V2.5114C8.29245 2.38553 8.25199 2.27764 8.17107 2.18773C8.09015 2.09782 7.97776 2.05286 7.8339 2.05286H4.73201C4.60613 2.05286 4.50274 2.09782 4.42182 2.18773C4.3409 2.27764 4.30044 2.38553 4.30044 2.5114V5.6133C4.30044 5.73917 4.3409 5.84257 4.42182 5.92349C4.50274 6.00441 4.60613 6.04487 4.73201 6.04487ZM5.19055 2.94297H7.40234V5.15476H5.19055V2.94297Z" fill="#003978"/>
</svg>
