<svg width="13" height="17" viewBox="0 0 13 17" fill="none" xmlns="http://www.w3.org/2000/svg">
<path id="Vector" d="M6.59215 0.382497C6.6461 0.418461 6.73601 0.445434 6.86188 0.463416C6.98776 0.481398 7.08666 0.49938 7.15859 0.517363C7.87787 0.715164 8.46678 1.10627 8.92532 1.69069C9.38386 2.2751 9.61313 2.94493 9.61313 3.70018V7.04484C9.61313 7.63824 9.46928 8.18669 9.18156 8.69019C8.89385 9.19369 8.50274 9.59379 8.00824 9.89049C7.51373 10.1872 6.97877 10.3355 6.40334 10.3355H6.32242C5.76498 10.3355 5.2435 10.2007 4.75799 9.93095C4.27247 9.66122 3.87237 9.29708 3.55769 8.83854C3.243 8.38 3.06768 7.87201 3.03171 7.31456C2.99575 6.99089 2.98676 6.50537 3.00474 5.85802L3.03171 5.15672V3.43045C3.10364 2.71117 3.38236 2.0773 3.86788 1.52885C4.35339 0.980399 4.96478 0.625255 5.70204 0.463416C5.73801 0.463416 5.78746 0.449929 5.8504 0.422956C5.91333 0.395984 5.96278 0.382497 5.99875 0.382497H6.59215ZM4.11064 16.3775C4.09265 16.3775 4.07018 16.364 4.0432 16.337C4.01623 16.3101 3.99375 16.2966 3.97577 16.2966C3.8499 16.2247 3.7465 16.1302 3.66558 16.0134C3.58466 15.8965 3.56218 15.7661 3.59815 15.6223C3.63411 15.4784 3.69705 15.3525 3.78696 15.2446C3.87687 15.1367 3.98476 15.0648 4.11064 15.0289H5.51323V13.0059L4.5422 12.8171C3.48126 12.5294 2.57767 11.9809 1.83141 11.1717C1.08516 10.3625 0.59515 9.40947 0.361384 8.31257C0.289456 7.80907 0.253492 7.43145 0.253492 7.1797C0.217528 7.01786 0.253492 6.86951 0.361384 6.73464C0.469276 6.59978 0.622123 6.51437 0.819926 6.4784H0.873872C1.03571 6.44244 1.18406 6.4829 1.31893 6.59978C1.45379 6.71666 1.53921 6.86502 1.57517 7.04484V7.1797C1.57517 7.91696 1.71903 8.54633 2.00674 9.06781C2.36638 9.84104 2.88336 10.4659 3.55769 10.9424C4.23201 11.419 4.96928 11.6977 5.76948 11.7786C6.56968 11.8595 7.3474 11.7202 8.10264 11.3605H8.15659C8.85789 11.0368 9.4468 10.5603 9.92332 9.93095C10.3998 9.30158 10.701 8.59129 10.8269 7.80008C10.8629 7.63824 10.8809 7.41347 10.8809 7.12575C10.8809 6.92795 10.9483 6.77061 11.0832 6.65373C11.218 6.53684 11.3844 6.4784 11.5822 6.4784C11.78 6.4784 11.9373 6.54583 12.0542 6.6807C12.1711 6.81556 12.2295 6.9819 12.2295 7.1797C12.2295 7.46741 12.2025 7.67421 12.1486 7.80008C12.0227 9.00487 11.5597 10.0748 10.7595 11.0099C9.95929 11.9449 8.96578 12.5653 7.77897 12.871L6.88886 13.0598V15.1098H8.15659C8.31843 15.1098 8.47127 15.1547 8.61513 15.2446C8.75899 15.3345 8.85339 15.4559 8.89835 15.6088C8.9433 15.7616 8.92532 15.919 8.8444 16.0808C8.76348 16.2426 8.6421 16.3415 8.48027 16.3775H4.11064Z" fill="#003978"/>
</svg>
